<svg id="Layer_1" data-name="Layer 1" xmlns="http://www.w3.org/2000/svg" viewBox="0 0 377.03 398.21"><defs><style>.cls-1{fill:#ccc;}</style></defs><path class="cls-1" d="M417,205.26a2.92,2.92,0,0,1,.81,4.38s-2,1.58-4.45,3.56a35,35,0,0,0-11.46,17.26c-.68,2.33-1.16,4.09-1.16,4.09-1.12,1.51-3.91.89-5.44-.2-4.17-3.15-8.83-4.53-13.87-2s-8.47,6.07-8.47,12c.07,23.27-.22,46.51.1,69.76.37,28.73-23.23,49.32-51.39,49.77-14.44.23-27.48-3.36-38.45-12.69-9.34-8-15.11-17.88-15.94-29.92-1.73-25-.46-50.13-.65-75.2,0-4.9-1.45-8.92-5.26-12s-8.47-3.75-13.25-1.91a12.28,12.28,0,0,0-7.8,9.09,17.52,17.52,0,0,0-.46,4.27v110c0,5.42,0,5.44-5.78,5.44-9.81,0-19.62-.09-29.44.05-3.37.05-4.76-.85-4.75-4.34.11-37.33-.08-74.64.15-112,.16-24.59,18.82-44,44.56-47.11,12.72-1.52,24.91-.28,36.2,6,16.91,9.36,25.42,23.62,25.62,42.21.26,22.77.07,45.52.07,68.29,0,4.65.88,8.88,4.74,12.28,4.21,3.72,8.86,4.44,13.75,2.23,4.56-2.05,7.75-5.52,8.12-10.7.09-1.35,0-2.69,0-4,0-21.55-.07-43.08.06-64.61.07-9.5,1.46-18.77,6.63-27.17,9.91-16.1,24.93-24,44-25a55.61,55.61,0,0,1,33.11,8.19Z" transform="translate(-199.85 -47.01)"/><path class="cls-1" d="M576.64,306.51c0,1.47,0,2.94,0,4.4-.37,9.63-2,18.88-7.39,27.34-8.44,13.2-20.74,20.72-36.43,22.93-16.56,2.33-32-.34-45.13-11.17-11.25-9.28-17.34-21.07-17.46-35.31-.2-23.37,0-46.74-.09-70.11,0-4.39-1.12-8.28-4.58-11.61s-7.42-4.58-12.12-3.34c-4.94,1.27-8.23,4.3-9.59,9.06A25.77,25.77,0,0,0,443,246c0,36.23-.05,72.45.11,108.66,0,3.61-1.06,4.55-4.71,4.46-10.45-.23-20.91-.21-31.34,0-3.74.07-4.87-1.22-4.83-4.67.1-19,.05-37.93.05-56.9,0-18.24,0-36.46,0-54.7v0a37.73,37.73,0,0,1,8.9-24.22l8.55-10.14a23.09,23.09,0,0,1,6.14-5.12h0c20.48-11.93,41.38-11.2,61.58-.07,9.08,5,15.5,13.28,19.2,23.08a56.68,56.68,0,0,1,3.39,20.17c.08,22.26,0,44.53,0,66.81,0,2.46.05,4.88,1.26,7.16a13.44,13.44,0,0,0,13.78,7.27,14.18,14.18,0,0,0,11.41-11.85,35.65,35.65,0,0,0,.12-4.39q0-54.34,0-108.66c0-5,5.18-5,5.18-5s25.28,3.16,30.2-.11c3.21-2.14,4.83,1.27,4.83,4.58Q576.69,254.38,576.64,306.51Z" transform="translate(-199.85 -47.01)"/><path class="cls-1" d="M304.28,419.73c0,4.16.08,8.32,0,12.48-.17,7.76-5.48,12.74-13.59,12.88-7.8.13-13.38-5.1-13.59-12.9-.13-4.64,0-9.29-.07-13.94-.06-2.31.74-5.71-2.83-5.81-3.72-.11-2.94,3.33-3,5.62-.1,7.59-.13,15.17,0,22.76.05,2.82-.87,3.84-4,3.74-7-.24-7-.08-7-6.9,0-7.71-.14-15.42.1-23.12.21-6.59,4.74-10.83,11.88-11.71s13.15,2.33,14.66,8.39c1,3.87.81,8,1,12,.12,2.56-.13,5.14-.09,7.71,0,2,.05,4.42,2.69,4.55,2.8.15,3.33-2.18,3.34-4.41,0-7.95,0-15.9,0-23.85,0-4.12.16-4,6.32-4.23,3.58-.16,4.34,1.18,4.17,4.25C304.11,411.41,304.29,415.57,304.28,419.73Z" transform="translate(-199.85 -47.01)"/><path class="cls-1" d="M399.12,433.76c0,1.59,0,3.18,0,4.77,0,6-2,7.38-8.19,5.87-2.06-.5-2.05-1.92-2.07-3.4,0-4.28,0-8.56-.07-12.84-.08-3.59-2.31-6.14-5.18-6.12-2.65,0-5.07,2.92-5.12,6.26-.06,4.16-.13,8.32,0,12.47.09,2.65-.9,3.92-3.73,3.72a11.44,11.44,0,0,0-2.68,0c-3.2.48-4-1.1-3.88-3.81.12-4.15.08-8.32,0-12.47-.09-3.72-2.19-6.24-5-6.28s-5.27,3-5.31,6.51c-.05,4.16-.1,8.32,0,12.47.07,2.46-.87,3.49-3.52,3.58-6.49.23-6.71.13-6.7-6.06,0-3.91-.22-7.85.15-11.73,1.05-11,11.52-16.64,21.94-11.85,2.63,1.21,4.53,1.44,7.3.09,9.41-4.6,23.33.31,22.12,13.29C399,430.08,399.12,431.93,399.12,433.76Z" transform="translate(-199.85 -47.01)"/><path class="cls-1" d="M491.5,417.51c-.21,3.91.38,8.57-.34,13.2-1.82,11.65-13.07,17.59-24.45,12.89-6.44-2.66-9.93-9.23-9.06-17,.78-7,5-11.49,12.07-12.93a13.71,13.71,0,0,1,9.23,1.41c1.69.86,2.31.4,2.29-1.35,0-2.81.13-5.64,0-8.44s1.16-4,4.06-3.74a15.87,15.87,0,0,0,2.67,0c2.7-.21,3.63,1.11,3.59,3.52C491.46,409,491.5,412.87,491.5,417.51ZM467.94,429.1c-.07,4,2.83,7.32,6.33,7.34s6.55-3.08,6.73-7.05c.16-3.67-2.94-7.25-6.4-7.39S468,425.25,467.94,429.1Z" transform="translate(-199.85 -47.01)"/><path class="cls-1" d="M452.7,433c0,3.35-.09,6.16,0,9,.08,1.94-.72,2.47-2.67,2.53-7.5.22-7.51.28-7.49-7,0-2.81.11-5.62.14-8.43.05-4.21-2.19-7.16-5.38-7.16-3,0-5.31,2.8-5.38,6.81s-.15,7.83,0,11.74c.14,3.07-1.2,4.26-4.27,4a25.87,25.87,0,0,0-3.41,0c-1.77.08-2.53-.72-2.51-2.41.05-5.62-.2-11.26.17-16.87a11.69,11.69,0,0,1,6-9.33c8.92-5.48,21.69-1.8,24.29,7.09C453.22,426.45,452.45,430,452.7,433Z" transform="translate(-199.85 -47.01)"/><path class="cls-1" d="M341.71,424.53c0,1.83,0,3.67,0,5.5,0,6-2.06,11-8,13.46-6.65,2.75-13.21,2.26-19-2.36-3.57-2.84-4.25-6.87-4.44-10.94-.2-4.28,0-8.56-.11-12.84s3.18-3.18,5.67-3.34c2.71-.17,4.78.18,4.59,3.63-.21,3.91-.1,7.83,0,11.74.08,4.21,2.42,6.86,5.82,6.79s5.16-2.32,5.2-6.75c0-4.16.07-8.32,0-12.48,0-2.17.88-3.05,3.21-3,7.67.23,7.06-1.13,7.09,6.53C341.72,421.84,341.72,423.18,341.71,424.53Z" transform="translate(-199.85 -47.01)"/><path class="cls-1" d="M507.47,444.47c-2.07,0-3.73,0-5.39,0-2.32-.06-5,.68-4.86-3.22.17-4.34.38-4.8,4.95-4.93,3.05-.09,6.11,0,9.16-.1,1,0,2.29-.1,2.26-1.42s-1.34-1.26-2.33-1.32c-2.41-.14-4.82,0-7.22-.51-5.41-1.25-8.14-4.46-8-9.64a9.33,9.33,0,0,1,8.76-9.11,127.68,127.68,0,0,1,14.51-.15c3.4.1,1.87,2.85,2.12,4.52s.21,3.28-2.35,3.23c-3.18-.06-6.37,0-9.55,0-1.15,0-2.63.06-2.66,1.46s1.42,1.54,2.57,1.6c2,.1,4.09,0,6.11.17,5.3.46,7.64,2.63,8.52,7.7a9.76,9.76,0,0,1-5.39,10.39C515,445,511,444.28,507.47,444.47Z" transform="translate(-199.85 -47.01)"/><path class="cls-1" d="M405.46,429.26c0-4.14.12-8.29,0-12.43-.09-2.37,1-3,3.2-2.84a14.77,14.77,0,0,0,2.66,0c3.06-.31,4.43.91,4.4,3.92-.09,7.56,0,15.11-.07,22.67,0,1.4.11,3.28-1.81,3.61-2.58.45-5.29.78-7.83-.13-.86-.31-.53-1.53-.54-2.37,0-4.14,0-8.29,0-12.43Z" transform="translate(-199.85 -47.01)"/><path class="cls-1" d="M416,406c.05,3.25-2.27,5.45-5.74,5.44a5.16,5.16,0,0,1-5.5-5.33,5.34,5.34,0,0,1,5.36-5.88C413.58,400.06,415.94,402.38,416,406Z" transform="translate(-199.85 -47.01)"/><ellipse class="cls-1" cx="356.17" cy="127.29" rx="18.78" ry="20.3"/><path class="cls-1" d="M280.58,84.4c-2.24,7.55-7.82,13.26-17.88,13.26-13.67,0-20.87-10.88-20.87-24.27,0-12.85,7.07-24.55,20.94-24.55,10.27,0,16.32,5.71,17.88,13.67H277c-2.18-6.19-6.19-10.27-14.42-10.27-11.83,0-16.79,10.81-16.79,21.08s4.9,20.94,17.07,20.94c7.75,0,11.69-4,14.07-9.86Z" transform="translate(-199.85 -47.01)"/><path class="cls-1" d="M289.22,72.37c0-5.71-.07-8.16-.07-9.25h3.34c.06,1.09.13,3.26.13,7.61a12.91,12.91,0,0,1,11.83-8.43V66c-7.07.47-11.83,5.37-11.83,13.46V97.12h-3.4Z" transform="translate(-199.85 -47.01)"/><path class="cls-1" d="M312.14,80.53c.07,8.77,4.49,14.21,11,14.21s8.57-3.61,9.79-6.39h3.47c-1.43,4.48-5,9.58-13.39,9.58-10.34,0-14.35-8.91-14.35-17.54,0-9.72,4.83-18.09,14.75-18.09,10.48,0,13.81,9,13.81,15.44,0,1,0,1.9-.07,2.79Zm21.55-3c-.07-6.73-3.74-12-10.4-12-7,0-10.2,4.9-11,12Z" transform="translate(-199.85 -47.01)"/><path class="cls-1" d="M369.53,90.66a39.56,39.56,0,0,0,.47,6.46h-3.26a22.27,22.27,0,0,1-.61-5.24C365,94.4,362,97.93,355,97.93c-7.89,0-11.29-5.1-11.29-10.2,0-7.48,5.78-10.88,16-10.88h6.46V73.39c0-3.4-1-8-8.77-8-6.87,0-7.89,3.61-8.64,6.39h-3.4c.41-3.74,2.72-9.52,12.1-9.52,7.76,0,12.11,3.27,12.11,10.75ZM366.2,79.78h-6.67c-7.54,0-12.24,2-12.24,7.82,0,4.28,3.06,7.2,7.82,7.2,9.73,0,11.09-6.45,11.09-13.8Z" transform="translate(-199.85 -47.01)"/><path class="cls-1" d="M376,63.12h6.32V52.51h3.4V63.12h8.09v3.2h-8.09V88.41c0,3.81.82,6,4.08,6a12.9,12.9,0,0,0,3.54-.41v3a11.88,11.88,0,0,1-4.22.61c-4.35,0-6.8-2.17-6.8-7.61V66.32H376Z" transform="translate(-199.85 -47.01)"/><path class="cls-1" d="M401.76,80.53c.07,8.77,4.49,14.21,11,14.21s8.56-3.61,9.79-6.39H426c-1.43,4.48-5,9.58-13.4,9.58-10.34,0-14.35-8.91-14.35-17.54,0-9.72,4.83-18.09,14.76-18.09,10.47,0,13.8,9,13.8,15.44,0,1,0,1.9-.07,2.79Zm21.56-3c-.07-6.73-3.74-12-10.41-12-7,0-10.2,4.9-11,12Z" transform="translate(-199.85 -47.01)"/><path class="cls-1" d="M462.41,47V87.33c0,3.26,0,6.39.07,9.79h-3.26c-.14-.82-.21-4-.21-5.72-1.7,4.15-5.5,6.53-11.42,6.53-8.84,0-14.14-7.21-14.14-17.4,0-10.48,5.78-18.23,15-18.23,6.8,0,9.52,2.93,10.54,5.1V47ZM437.05,80.39c0,9.32,4.83,14.35,10.68,14.35,9,0,11.42-6.19,11.42-15.44,0-8.77-2.11-13.8-10.81-13.8C441.61,65.5,437.05,70.87,437.05,80.39Z" transform="translate(-199.85 -47.01)"/><path class="cls-1" d="M493.7,49.52h16.59c9.11,0,14,4.83,14,11.7,0,5.64-3.4,9.31-7.34,10.4a12,12,0,0,1,9,11.76c0,9.52-7.14,13.74-15.43,13.74H493.7ZM509.06,70c8.23,0,11.36-3.06,11.36-8.57,0-4.69-3.27-8.5-9.93-8.5H497.3V70ZM497.3,93.72h13.39c6.26,0,11.49-3.13,11.49-10.13,0-6.06-3.87-10.2-13.46-10.2H497.3Z" transform="translate(-199.85 -47.01)"/><path class="cls-1" d="M534.36,63.12c6.87,19.45,9.86,27.47,11,31.14h.07c1.36-4.15,4.08-12,10.68-31.14h3.53l-12.78,36c-3.6,10.06-6,12.3-12.17,12.3a22.16,22.16,0,0,1-3.13-.2v-3.4a21.73,21.73,0,0,0,3.06.21c4.9,0,6.46-2.38,9-9.39l-13-35.49Z" transform="translate(-199.85 -47.01)"/></svg>